<mxfile host="app.diagrams.net" agent="Mozilla/5.0 (Windows NT 10.0; Win64; x64) AppleWebKit/537.36 (KHTML, like Gecko) Chrome/127.0.0.0 Safari/537.36" version="24.7.6">
  <diagram name="PÃ¡gina-1" id="3sSHPu7qVtqLJ2lTmtkI">
    <mxGraphModel dx="1434" dy="772" grid="1" gridSize="10" guides="1" tooltips="1" connect="1" arrows="1" fold="1" page="1" pageScale="1" pageWidth="827" pageHeight="1169" math="0" shadow="0">
      <root>
        <mxCell id="0" />
        <mxCell id="1" parent="0" />
        <mxCell id="e_LelnbhpxfIbGNhD0iw-1" value="" style="rounded=0;whiteSpace=wrap;html=1;" parent="1" vertex="1">
          <mxGeometry x="260" y="180" width="350" height="1120" as="geometry" />
        </mxCell>
        <mxCell id="e_LelnbhpxfIbGNhD0iw-2" value="Sistema de Gestion de Proyectos (SGP)" style="text;html=1;align=center;verticalAlign=middle;whiteSpace=wrap;rounded=0;" parent="1" vertex="1">
          <mxGeometry x="332.5" y="180" width="200" height="60" as="geometry" />
        </mxCell>
        <mxCell id="e_LelnbhpxfIbGNhD0iw-3" value="Gerentes del proyecto" style="shape=umlActor;verticalLabelPosition=bottom;verticalAlign=top;html=1;outlineConnect=0;" parent="1" vertex="1">
          <mxGeometry x="120" y="350" width="30" height="60" as="geometry" />
        </mxCell>
        <mxCell id="e_LelnbhpxfIbGNhD0iw-4" value="Crear Nuevos Proyectos" style="ellipse;whiteSpace=wrap;html=1;" parent="1" vertex="1">
          <mxGeometry x="370" y="240" width="125" height="80" as="geometry" />
        </mxCell>
        <mxCell id="e_LelnbhpxfIbGNhD0iw-5" value="" style="endArrow=none;html=1;rounded=0;entryX=0;entryY=0.5;entryDx=0;entryDy=0;" parent="1" source="e_LelnbhpxfIbGNhD0iw-3" target="e_LelnbhpxfIbGNhD0iw-4" edge="1">
          <mxGeometry width="50" height="50" relative="1" as="geometry">
            <mxPoint x="390" y="520" as="sourcePoint" />
            <mxPoint x="440" y="470" as="targetPoint" />
          </mxGeometry>
        </mxCell>
        <mxCell id="e_LelnbhpxfIbGNhD0iw-6" value="Definir tarea&lt;span style=&quot;color: rgba(0, 0, 0, 0); font-family: monospace; font-size: 0px; text-align: start; text-wrap: nowrap;&quot;&gt;%3CmxGraphModel%3E%3Croot%3E%3CmxCell%20id%3D%220%22%2F%3E%3CmxCell%20id%3D%221%22%20parent%3D%220%22%2F%3E%3CmxCell%20id%3D%222%22%20value%3D%22%22%20style%3D%22endArrow%3Dnone%3Bhtml%3D1%3Brounded%3D0%3B%22%20edge%3D%221%22%20parent%3D%221%22%3E%3CmxGeometry%20width%3D%2250%22%20height%3D%2250%22%20relative%3D%221%22%20as%3D%22geometry%22%3E%3CmxPoint%20x%3D%22498%22%20y%3D%22780%22%20as%3D%22sourcePoint%22%2F%3E%3CmxPoint%20x%3D%22740%22%20y%3D%22780%22%20as%3D%22targetPoint%22%2F%3E%3C%2FmxGeometry%3E%3C%2FmxCell%3E%3C%2Froot%3E%3C%2FmxGraphModel%3E&lt;/span&gt;s&amp;nbsp;" style="ellipse;whiteSpace=wrap;html=1;" parent="1" vertex="1">
          <mxGeometry x="377.5" y="340" width="110" height="70" as="geometry" />
        </mxCell>
        <mxCell id="e_LelnbhpxfIbGNhD0iw-7" value="" style="endArrow=none;html=1;rounded=0;" parent="1" source="e_LelnbhpxfIbGNhD0iw-3" target="e_LelnbhpxfIbGNhD0iw-6" edge="1">
          <mxGeometry width="50" height="50" relative="1" as="geometry">
            <mxPoint x="210" y="375" as="sourcePoint" />
            <mxPoint x="390" y="320" as="targetPoint" />
          </mxGeometry>
        </mxCell>
        <mxCell id="e_LelnbhpxfIbGNhD0iw-9" value="Asignar&amp;nbsp; tareas y subtareas" style="ellipse;whiteSpace=wrap;html=1;" parent="1" vertex="1">
          <mxGeometry x="370" y="505" width="125" height="80" as="geometry" />
        </mxCell>
        <mxCell id="e_LelnbhpxfIbGNhD0iw-10" value="" style="endArrow=none;html=1;rounded=0;" parent="1" source="e_LelnbhpxfIbGNhD0iw-3" target="e_LelnbhpxfIbGNhD0iw-9" edge="1">
          <mxGeometry width="50" height="50" relative="1" as="geometry">
            <mxPoint x="390" y="520" as="sourcePoint" />
            <mxPoint x="440" y="470" as="targetPoint" />
          </mxGeometry>
        </mxCell>
        <mxCell id="e_LelnbhpxfIbGNhD0iw-11" value="Gestionar&amp;nbsp; fechas Limites" style="ellipse;whiteSpace=wrap;html=1;" parent="1" vertex="1">
          <mxGeometry x="370" y="610" width="125" height="80" as="geometry" />
        </mxCell>
        <mxCell id="e_LelnbhpxfIbGNhD0iw-12" value="" style="endArrow=none;html=1;rounded=0;entryX=0.04;entryY=0.413;entryDx=0;entryDy=0;entryPerimeter=0;" parent="1" source="e_LelnbhpxfIbGNhD0iw-3" target="e_LelnbhpxfIbGNhD0iw-11" edge="1">
          <mxGeometry width="50" height="50" relative="1" as="geometry">
            <mxPoint x="390" y="420" as="sourcePoint" />
            <mxPoint x="440" y="370" as="targetPoint" />
          </mxGeometry>
        </mxCell>
        <mxCell id="e_LelnbhpxfIbGNhD0iw-13" value="Visualizar Fechas limites" style="ellipse;whiteSpace=wrap;html=1;" parent="1" vertex="1">
          <mxGeometry x="372.5" y="810" width="125" height="80" as="geometry" />
        </mxCell>
        <mxCell id="e_LelnbhpxfIbGNhD0iw-14" value="Miembros del equipo" style="shape=umlActor;verticalLabelPosition=bottom;verticalAlign=top;html=1;outlineConnect=0;" parent="1" vertex="1">
          <mxGeometry x="120" y="690" width="30" height="60" as="geometry" />
        </mxCell>
        <mxCell id="e_LelnbhpxfIbGNhD0iw-15" value="StakeHolders" style="shape=umlActor;verticalLabelPosition=bottom;verticalAlign=top;html=1;outlineConnect=0;" parent="1" vertex="1">
          <mxGeometry x="740" y="750" width="30" height="60" as="geometry" />
        </mxCell>
        <mxCell id="e_LelnbhpxfIbGNhD0iw-18" value="" style="endArrow=none;html=1;rounded=0;" parent="1" source="e_LelnbhpxfIbGNhD0iw-13" target="e_LelnbhpxfIbGNhD0iw-15" edge="1">
          <mxGeometry width="50" height="50" relative="1" as="geometry">
            <mxPoint x="545" y="730" as="sourcePoint" />
            <mxPoint x="770" y="916" as="targetPoint" />
          </mxGeometry>
        </mxCell>
        <mxCell id="e_LelnbhpxfIbGNhD0iw-19" value="" style="endArrow=none;html=1;rounded=0;entryX=0;entryY=0.5;entryDx=0;entryDy=0;" parent="1" source="e_LelnbhpxfIbGNhD0iw-14" target="e_LelnbhpxfIbGNhD0iw-13" edge="1">
          <mxGeometry width="50" height="50" relative="1" as="geometry">
            <mxPoint x="502" y="706" as="sourcePoint" />
            <mxPoint x="750" y="776" as="targetPoint" />
          </mxGeometry>
        </mxCell>
        <mxCell id="e_LelnbhpxfIbGNhD0iw-20" value="" style="endArrow=none;html=1;rounded=0;entryX=0;entryY=0.5;entryDx=0;entryDy=0;" parent="1" source="e_LelnbhpxfIbGNhD0iw-3" target="e_LelnbhpxfIbGNhD0iw-13" edge="1">
          <mxGeometry width="50" height="50" relative="1" as="geometry">
            <mxPoint x="160" y="402" as="sourcePoint" />
            <mxPoint x="385" y="588" as="targetPoint" />
          </mxGeometry>
        </mxCell>
        <mxCell id="e_LelnbhpxfIbGNhD0iw-21" value="Generar reportes del estado" style="ellipse;whiteSpace=wrap;html=1;" parent="1" vertex="1">
          <mxGeometry x="370" y="710" width="125" height="80" as="geometry" />
        </mxCell>
        <mxCell id="e_LelnbhpxfIbGNhD0iw-22" value="" style="endArrow=none;html=1;rounded=0;entryX=0.04;entryY=0.4;entryDx=0;entryDy=0;entryPerimeter=0;" parent="1" source="e_LelnbhpxfIbGNhD0iw-3" target="e_LelnbhpxfIbGNhD0iw-21" edge="1">
          <mxGeometry width="50" height="50" relative="1" as="geometry">
            <mxPoint x="160" y="415" as="sourcePoint" />
            <mxPoint x="383" y="790" as="targetPoint" />
          </mxGeometry>
        </mxCell>
        <mxCell id="e_LelnbhpxfIbGNhD0iw-23" value="" style="endArrow=none;html=1;rounded=0;" parent="1" source="e_LelnbhpxfIbGNhD0iw-21" target="e_LelnbhpxfIbGNhD0iw-15" edge="1">
          <mxGeometry width="50" height="50" relative="1" as="geometry">
            <mxPoint x="508" y="790" as="sourcePoint" />
            <mxPoint x="750" y="790" as="targetPoint" />
          </mxGeometry>
        </mxCell>
        <mxCell id="e_LelnbhpxfIbGNhD0iw-26" value="Enviar Notificacion y recordatorios a los usuarios" style="ellipse;whiteSpace=wrap;html=1;" parent="1" vertex="1">
          <mxGeometry x="370" y="1020" width="130" height="90" as="geometry" />
        </mxCell>
        <mxCell id="e_LelnbhpxfIbGNhD0iw-28" value="Gestionar avance de tareas" style="ellipse;whiteSpace=wrap;html=1;" parent="1" vertex="1">
          <mxGeometry x="370" y="910" width="125" height="80" as="geometry" />
        </mxCell>
        <mxCell id="e_LelnbhpxfIbGNhD0iw-29" value="" style="endArrow=none;html=1;rounded=0;entryX=0;entryY=0.5;entryDx=0;entryDy=0;" parent="1" source="e_LelnbhpxfIbGNhD0iw-14" target="e_LelnbhpxfIbGNhD0iw-28" edge="1">
          <mxGeometry width="50" height="50" relative="1" as="geometry">
            <mxPoint x="160" y="734" as="sourcePoint" />
            <mxPoint x="383" y="790" as="targetPoint" />
          </mxGeometry>
        </mxCell>
        <mxCell id="fOUluS8VV4bDkbSfyIgu-1" value="" style="endArrow=none;html=1;rounded=0;entryX=0.055;entryY=0.371;entryDx=0;entryDy=0;entryPerimeter=0;" parent="1" source="e_LelnbhpxfIbGNhD0iw-3" target="e_LelnbhpxfIbGNhD0iw-26" edge="1">
          <mxGeometry width="50" height="50" relative="1" as="geometry">
            <mxPoint x="60" y="600" as="sourcePoint" />
            <mxPoint x="285" y="883" as="targetPoint" />
          </mxGeometry>
        </mxCell>
        <mxCell id="fOUluS8VV4bDkbSfyIgu-2" value="" style="endArrow=none;html=1;rounded=0;entryX=0.006;entryY=0.389;entryDx=0;entryDy=0;entryPerimeter=0;" parent="1" source="e_LelnbhpxfIbGNhD0iw-14" target="e_LelnbhpxfIbGNhD0iw-26" edge="1">
          <mxGeometry width="50" height="50" relative="1" as="geometry">
            <mxPoint x="157" y="420" as="sourcePoint" />
            <mxPoint x="387" y="993" as="targetPoint" />
          </mxGeometry>
        </mxCell>
        <mxCell id="fOUluS8VV4bDkbSfyIgu-3" value="" style="endArrow=none;html=1;rounded=0;" parent="1" source="e_LelnbhpxfIbGNhD0iw-26" target="e_LelnbhpxfIbGNhD0iw-15" edge="1">
          <mxGeometry width="50" height="50" relative="1" as="geometry">
            <mxPoint x="508" y="790" as="sourcePoint" />
            <mxPoint x="750" y="790" as="targetPoint" />
          </mxGeometry>
        </mxCell>
        <mxCell id="fOUluS8VV4bDkbSfyIgu-4" value="Definir&amp;nbsp;subtareas" style="ellipse;whiteSpace=wrap;html=1;" parent="1" vertex="1">
          <mxGeometry x="377.5" y="425" width="115" height="65" as="geometry" />
        </mxCell>
        <mxCell id="fOUluS8VV4bDkbSfyIgu-5" value="" style="endArrow=none;html=1;rounded=0;entryX=0.051;entryY=0.393;entryDx=0;entryDy=0;entryPerimeter=0;" parent="1" source="e_LelnbhpxfIbGNhD0iw-3" target="fOUluS8VV4bDkbSfyIgu-4" edge="1">
          <mxGeometry width="50" height="50" relative="1" as="geometry">
            <mxPoint x="160" y="389" as="sourcePoint" />
            <mxPoint x="383" y="374" as="targetPoint" />
          </mxGeometry>
        </mxCell>
        <mxCell id="RU1fxXGiYTC7QFEvEGWE-1" value="Crear Usuarios" style="ellipse;whiteSpace=wrap;html=1;" vertex="1" parent="1">
          <mxGeometry x="367.5" y="1150" width="130" height="90" as="geometry" />
        </mxCell>
        <mxCell id="RU1fxXGiYTC7QFEvEGWE-2" value="Administrador del sistema" style="shape=umlActor;verticalLabelPosition=bottom;verticalAlign=top;html=1;outlineConnect=0;" vertex="1" parent="1">
          <mxGeometry x="700" y="1165" width="30" height="60" as="geometry" />
        </mxCell>
        <mxCell id="RU1fxXGiYTC7QFEvEGWE-3" value="" style="endArrow=none;html=1;rounded=0;exitX=1;exitY=0.5;exitDx=0;exitDy=0;" edge="1" parent="1" source="RU1fxXGiYTC7QFEvEGWE-1" target="RU1fxXGiYTC7QFEvEGWE-2">
          <mxGeometry width="50" height="50" relative="1" as="geometry">
            <mxPoint x="485" y="1040" as="sourcePoint" />
            <mxPoint x="750" y="803" as="targetPoint" />
          </mxGeometry>
        </mxCell>
      </root>
    </mxGraphModel>
  </diagram>
</mxfile>
